<svg display="none" xmlns="http://www.w3.org/2000/svg" xmlns:xlink="http://www.w3.org/1999/xlink" version="1.1" xml:space="preserve"><path id="icon-glasses" d="M37,67.803c-3-1.238-4.468-2.628-7.463-4.483c-7.236-6.27-16.01-15.958-19.903-19.317c-1.136,0.522-0.699,8.383-2.327,8.108  c-3.532-0.43-3.099-16.026,2.378-15.356c3.87,1.013,13.524,5.947,21.102,9.367C30.942,46.191,34,47.51,37,48.657v0.985V67.803z   M54.305,42.875c2.158-0.539,2.959-5.148,4.195-6.653c3.981,1.712,7.493,3.294,10.902,4.991l21.966-4.608  c-2.639-0.521-5.32-1.059-7.597-1.522c-9.083-1.848-15.396-3.518-24.852-4.975C52.969,30.172,48.465,42.875,54.305,42.875z   M75.054,59.894c-1.364,0.261-1.957-2.037-2.116-2.926c-0.271-1.513-1.086-2.727-2.435-2.575c-1.449,0.163-2.869,3.514-2.869,3.514  s-1.723,4.177-2.946,4.868c-5.716,2.104-14.677,4.795-22.233,7.103C41.732,70.098,42,67.821,39,68.822V49.39l56.113-11.742  L94.6,52.422c0,0-1.079,0.279-1.462,0.65c-0.611,0.593-0.343,1.747-0.833,1.93C92.305,55.002,80.412,58.87,75.054,59.894z   M63.475,53.703c0.028-5.133-1.738-5.885-5.472-4.817c-2.104,0.601-5.44,1.202-7.773,1.948c-2.557,0.819-3.487,5.252-3.499,5.451  c-0.265,4.395-1.051,9.771,4.477,8.154c1.78-0.522,5.291-1.698,7.354-2.323C61.698,61.168,63.443,59.483,63.475,53.703z   M88.192,42.343c-0.386,0-0.84,0.065-1.372,0.198c-1.688,0.42-3.858,0.752-6.518,1.459c-2.49,0.663-2.978,5.192-2.987,5.352  c-0.185,3.062-0.687,6.724,2.144,6.724c0.401,0,0.871-0.075,1.419-0.234c1.416-0.415,3.684-0.942,5.326-1.439  c2.496-0.755,3.956-2.549,4.083-7.104C90.379,44.064,90.174,42.343,88.192,42.343z"></path></svg>
